<svg width="256" height="256" viewBox="0 0 256 256" fill="none" xmlns="http://www.w3.org/2000/svg">
<rect width="256" height="256" rx="60" fill="white"/>
<g filter="url(#filter0_d_237_5)">
<path d="M77.9997 194.667C73.4164 194.667 69.4941 193.036 66.233 189.775C62.9719 186.514 61.3386 182.589 61.333 178C61.3275 173.411 62.9608 169.489 66.233 166.233C69.5052 162.978 73.4275 161.344 77.9997 161.333C82.5719 161.322 86.4969 162.956 89.7747 166.233C93.0525 169.511 94.683 173.433 94.6664 178C94.6497 182.567 93.0191 186.492 89.7747 189.775C86.5302 193.058 82.6052 194.689 77.9997 194.667ZM77.9997 144.667C73.4164 144.667 69.4941 143.036 66.233 139.775C62.9719 136.514 61.3386 132.589 61.333 128C61.3275 123.411 62.9608 119.489 66.233 116.233C69.5052 112.978 73.4275 111.344 77.9997 111.333C82.5719 111.322 86.4969 112.956 89.7747 116.233C93.0525 119.511 94.683 123.433 94.6664 128C94.6497 132.567 93.0191 136.492 89.7747 139.775C86.5302 143.058 82.6052 144.689 77.9997 144.667ZM77.9997 94.6666C73.4164 94.6666 69.4941 93.0361 66.233 89.775C62.9719 86.5139 61.3386 82.5889 61.333 78C61.3275 73.4111 62.9608 69.4889 66.233 66.2333C69.5052 62.9778 73.4275 61.3444 77.9997 61.3333C82.5719 61.3222 86.4969 62.9555 89.7747 66.2333C93.0525 69.5111 94.683 73.4333 94.6664 78C94.6497 82.5666 93.0191 86.4916 89.7747 89.775C86.5302 93.0583 82.6052 94.6889 77.9997 94.6666ZM128 94.6666C123.416 94.6666 119.494 93.0361 116.233 89.775C112.972 86.5139 111.339 82.5889 111.333 78C111.327 73.4111 112.961 69.4889 116.233 66.2333C119.505 62.9778 123.427 61.3444 128 61.3333C132.572 61.3222 136.497 62.9555 139.775 66.2333C143.052 69.5111 144.683 73.4333 144.666 78C144.65 82.5666 143.019 86.4916 139.775 89.775C136.53 93.0583 132.605 94.6889 128 94.6666ZM178 94.6666C173.416 94.6666 169.494 93.0361 166.233 89.775C162.972 86.5139 161.339 82.5889 161.333 78C161.327 73.4111 162.961 69.4889 166.233 66.2333C169.505 62.9778 173.427 61.3444 178 61.3333C182.572 61.3222 186.497 62.9555 189.775 66.2333C193.052 69.5111 194.683 73.4333 194.666 78C194.65 82.5666 193.019 86.4916 189.775 89.775C186.53 93.0583 182.605 94.6889 178 94.6666ZM128 144.667C123.416 144.667 119.494 143.036 116.233 139.775C112.972 136.514 111.339 132.589 111.333 128C111.327 123.411 112.961 119.489 116.233 116.233C119.505 112.978 123.427 111.344 128 111.333C132.572 111.322 136.497 112.956 139.775 116.233C143.052 119.511 144.683 123.433 144.666 128C144.65 132.567 143.019 136.492 139.775 139.775C136.53 143.058 132.605 144.689 128 144.667ZM136.333 194.667V169.042L182.375 123.208C183.625 121.958 185.014 121.056 186.541 120.5C188.069 119.944 189.597 119.667 191.125 119.667C192.791 119.667 194.389 119.981 195.916 120.608C197.444 121.236 198.833 122.172 200.083 123.417L207.791 131.125C208.902 132.375 209.772 133.764 210.4 135.292C211.027 136.819 211.339 138.347 211.333 139.875C211.327 141.403 211.05 142.967 210.5 144.567C209.95 146.167 209.047 147.589 207.791 148.833L161.958 194.667H136.333ZM148.833 182.167H156.75L181.958 156.75L178.208 152.792L174.25 149.042L148.833 174.25V182.167ZM178.208 152.792L174.25 149.042L181.958 156.75L178.208 152.792Z" fill="#494949"/>
</g>
<defs>
<filter id="filter0_d_237_5" x="56.333" y="56.3333" width="170" height="153.333" filterUnits="userSpaceOnUse" color-interpolation-filters="sRGB">
<feFlood flood-opacity="0" result="BackgroundImageFix"/>
<feColorMatrix in="SourceAlpha" type="matrix" values="0 0 0 0 0 0 0 0 0 0 0 0 0 0 0 0 0 0 127 0" result="hardAlpha"/>
<feOffset dx="5" dy="5"/>
<feGaussianBlur stdDeviation="5"/>
<feComposite in2="hardAlpha" operator="out"/>
<feColorMatrix type="matrix" values="0 0 0 0 0 0 0 0 0 0 0 0 0 0 0 0 0 0 0.25 0"/>
<feBlend mode="normal" in2="BackgroundImageFix" result="effect1_dropShadow_237_5"/>
<feBlend mode="normal" in="SourceGraphic" in2="effect1_dropShadow_237_5" result="shape"/>
</filter>
</defs>
</svg>
